<?xml version="1.0" standalone="no"?><!DOCTYPE svg PUBLIC "-//W3C//DTD SVG 1.1//EN" "http://www.w3.org/Graphics/SVG/1.1/DTD/svg11.dtd"><svg t="1708609966892" class="icon" viewBox="0 0 1024 1024" version="1.1" xmlns="http://www.w3.org/2000/svg" p-id="39757" xmlns:xlink="http://www.w3.org/1999/xlink" width="200" height="200"><path d="M998.796921 773.671618l-425.60266 236.376017a139.449637 139.449637 0 0 1-121.537316 0L25.425133 773.671618c-33.308034-18.504463-33.308034-49.036828 0-67.467274l56.586649-31.457588 327.973111 181.972894a224.903249 224.903249 0 0 0 204.585348 0l327.788066-181.972894 56.586649 31.309553c33.641115 18.911562 33.641115 48.888793 0 67.652318zM25.277097 317.795656l425.898732 236.561061a139.449637 139.449637 0 0 0 121.537316 0l425.898731-236.376017c33.308034-18.504463 33.308034-48.888793 0-67.467273L573.009216 13.952365a139.449637 139.449637 0 0 0-121.537316 0L25.240088 250.513427c-33.641115 18.504463-33.641115 48.703748 0 67.319238z m973.519824 160.396689l-56.58665-31.309552-327.677039 182.194947a224.86624 224.86624 0 0 1-204.585348 0l-327.973111-182.157938-56.586649 31.309552c-33.308034 18.504463-33.308034 49.036828 0 67.467274l425.898731 236.376016a139.449637 139.449637 0 0 0 121.537316 0l425.898732-236.376016c33.715132-18.467455 33.715132-48.740757 0.074018-67.504283z m0 0" fill="#E94E4E" p-id="39758"></path></svg>