<?xml version="1.0" standalone="no"?><!DOCTYPE svg PUBLIC "-//W3C//DTD SVG 1.1//EN" "http://www.w3.org/Graphics/SVG/1.1/DTD/svg11.dtd"><svg t="1730514280848" class="icon" viewBox="0 0 1024 1024" version="1.1" xmlns="http://www.w3.org/2000/svg" p-id="8190" xmlns:xlink="http://www.w3.org/1999/xlink" width="200" height="200"><path d="M514 114.3c-219.9 0-398.8 178.9-398.8 398.9C115.2 733.1 294.1 912 514 912s398.8-178.9 398.8-398.8S733.9 114.3 514 114.3zM694 572H465.3l63.8 63.8c22.9 22.9 22.9 60.2 0 83.1-22.9 22.9-60.2 22.9-83.1 0L281.9 554.7c-22.9-22.9-22.9-60.2 0-83.1L446 307.5c22.9-22.9 60.2-22.9 83.1 0 11.5 11.5 17.2 26.5 17.2 41.5s-5.7 30.1-17.2 41.5l-63.8 63.8H694c32.5 0 58.8 26.3 58.8 58.8S726.5 572 694 572z" fill="#000000" p-id="8191"></path></svg>