<svg t="1732270192806" class="icon" viewBox="0 0 1433 1024" version="1.1" xmlns="http://www.w3.org/2000/svg" p-id="4870" width="32" height="32"><path d="M492.178995 18.978206A30.009033 30.009033 0 0 0 464.02142 0.000771h-60.48093a30.317609 30.317609 0 0 0-28.157576 18.977435l-372.914305 933.442922a30.394753 30.394753 0 0 0 28.157576 42.197792h25.303246a30.009033 30.009033 0 0 0 28.157576-18.977435l92.187132-229.812104a30.009033 30.009033 0 0 1 28.157575-18.977435h453.838406a30.317609 30.317609 0 0 1 28.157576 18.977435l92.187131 230.12068a30.009033 30.009033 0 0 0 28.157576 18.977435h30.857617a30.857617 30.857617 0 0 0 28.157576-42.197792z m109.775974 626.255342H255.732503a30.394753 30.394753 0 0 1-28.157576-42.197791l175.194122-444.041113a30.857617 30.857617 0 0 1 57.009448 0l171.028344 444.735409a30.857617 30.857617 0 0 1-28.851872 41.812071z m803.609497 194.171557V511.465778q-5.245795-220.631963-246.860938-225.877759-201.577385 0-249.098115 154.288086a30.857617 30.857617 0 0 0 29.546168 39.420607h22.526061a29.39188 29.39188 0 0 0 28.851872-21.831765c17.588842-64.029556 73.903993-96.430054 167.479718-96.430054A135.619228 135.619228 0 0 1 1319.163138 505.98855v33.789091a30.009033 30.009033 0 0 1-30.240465 30.240465h-49.295044a788.180689 788.180689 0 0 0-231.432129 32.400498 213.534711 213.534711 0 0 0-140.016438 199.108776c7.020108 128.059112 83.701287 196.33159 228.654943 204.045994h5.631516a258.432545 258.432545 0 0 0 212.531838-102.061569l5.631516-10.568734 3.548626 73.209697a30.240465 30.240465 0 0 0 30.240465 28.851872h22.52606a30.857617 30.857617 0 0 0 30.240465-33.789091 778.074819 778.074819 0 0 1-1.620025-121.7333z m-289.907314 101.290129c-100.287256-3.548626-152.668061-50.683636-156.216687-140.016439-3.548626-108.00166 100.287256-158.993873 312.433374-155.522391h18.977435a30.317609 30.317609 0 0 1 30.240465 29.546169q3.162906 260.82401-205.434587 266.069805z" p-id="4871" fill="#000000"></path></svg>