<?xml version="1.0" standalone="no"?><!DOCTYPE svg PUBLIC "-//W3C//DTD SVG 1.1//EN" "http://www.w3.org/Graphics/SVG/1.1/DTD/svg11.dtd"><svg t="1731136118500" class="icon" viewBox="0 0 1024 1024" version="1.1" xmlns="http://www.w3.org/2000/svg" p-id="8874" xmlns:xlink="http://www.w3.org/1999/xlink" width="200" height="200"><path d="M622.016 535.5776c-37.2864-24.2688-75.9168-39.0784-115.84-44.4544-39.936-5.3632-74.7776-3.3536-104.512 6.0928-29.7344 9.4208-56.8064 20.8768-81.2032 34.3552s-42.8288 26.048-55.2576 37.7088l-19.9808 18.8928c-53.2608 55.6928-112.2816 78.144-177.0752 67.3664l-10.6496-2.7136c73.6896 151.7568 185.5104 223.168 335.5136 214.1952 55.04-2.7008 103.4112-14.3872 145.1136-35.0464 0 15.2576-9.3184 28.2752-27.9552 39.0528s-36.8256 17.9584-54.5792 21.5552l-26.624 5.4016c4.4288 1.8048 10.4192 4.2752 17.9712 7.4112 7.5648 3.1232 22.4256 6.9504 44.608 11.4688 22.1696 4.5184 43.712 5.8624 64.576 4.0448 20.8896-1.8176 44.4032-10.112 70.5664-24.9088s49.0112-36.5824 68.544-65.344c55.0528-78.1312 45.2736-161.6512-29.312-250.5728-15.0784-17.9456-29.7216-32.7808-43.9296-44.4416L621.9904 535.5776zM668.6208 439.9232c-28.4032-17.9584-51.9296-25.5872-70.5536-22.8864-18.6368 2.7008-32.3968 9.8688-41.2928 21.5424l-13.3376 18.8928c16.8704 4.48 33.0752 10.5472 48.6144 18.1888 15.5392 7.6544 28.8512 15.2704 39.9616 22.8864 11.0976 7.6288 21.5296 15.4752 31.2704 23.5904 9.7408 8.1024 17.9456 15.7312 24.6272 22.8864s12.224 13.6576 16.6528 19.52c4.4416 5.8624 7.552 10.5728 9.3312 14.1312l2.688 4.0448c4.4288-4.4928 8.2048-9.6384 11.328-15.4752 3.1232-5.824 5.3376-12.3392 6.656-19.52 1.3056-7.1936 1.0752-14.8096-0.6784-22.8864-1.7664-8.0768-4.8768-16.6144-9.3312-25.6128-4.4672-8.9856-11.5584-18.6368-21.2992-28.9664-9.7408-10.3168-21.2864-20.416-34.6368-30.2976L668.6208 439.9232zM909.6064 142.2336 707.2256 399.5392c0 0.8832-0.4352 2.24-1.3312 4.032-0.8704 1.8176-1.3184 4.9664-1.3184 9.4464s0.8832 8.512 2.688 12.1088c1.7792 3.584 6.0032 6.72 12.6464 9.4336 6.6432 2.7008 15.7312 4.0448 27.3024 4.0448l202.3808-257.3056 4.0064-21.5552c-0.8704-16.1792-15.5264-22.016-43.9296-17.4976L909.6064 142.2336z" p-id="8875" fill="#000000"></path></svg>