<?xml version="1.0" standalone="no"?><!DOCTYPE svg PUBLIC "-//W3C//DTD SVG 1.1//EN" "http://www.w3.org/Graphics/SVG/1.1/DTD/svg11.dtd"><svg t="1732162685962" class="icon" viewBox="0 0 1024 1024" version="1.1" xmlns="http://www.w3.org/2000/svg" p-id="2342" xmlns:xlink="http://www.w3.org/1999/xlink" width="200" height="200"><path d="M682.666667 42.666667a42.666667 42.666667 0 0 0-42.666667-42.666667H384a42.666667 42.666667 0 0 0-42.666667 42.666667v256a42.666667 42.666667 0 0 0 42.666667 42.666666h256a42.666667 42.666667 0 0 0 42.666667-42.666666V42.666667z m-85.333334 42.666666v170.666667h-170.666666V85.333333h170.666666zM341.333333 725.333333a42.666667 42.666667 0 0 0-42.666666-42.666666H42.666667a42.666667 42.666667 0 0 0-42.666667 42.666666v256a42.666667 42.666667 0 0 0 42.666667 42.666667h256a42.666667 42.666667 0 0 0 42.666666-42.666667v-256z m-85.333333 42.666667v170.666667H85.333333v-170.666667h170.666667zM1024 725.333333a42.666667 42.666667 0 0 0-42.666667-42.666666h-256a42.666667 42.666667 0 0 0-42.666666 42.666666v256a42.666667 42.666667 0 0 0 42.666666 42.666667h256a42.666667 42.666667 0 0 0 42.666667-42.666667v-256z m-85.333333 42.666667v170.666667h-170.666667v-170.666667h170.666667z" p-id="2343" fill="#000000"></path><path d="M512 256a42.666667 42.666667 0 0 1 42.666667 42.666667v256a42.666667 42.666667 0 1 1-85.333334 0V298.666667a42.666667 42.666667 0 0 1 42.666667-42.666667z" p-id="2344" fill="#000000"></path><path d="M896 554.666667a42.666667 42.666667 0 0 0-42.666667-42.666667H170.666667a42.666667 42.666667 0 0 0-42.666667 42.666667v170.666666h85.333333v-128h597.333334v128h85.333333v-170.666666z" p-id="2345" fill="#000000"></path></svg>