<?xml version="1.0" standalone="no"?><!DOCTYPE svg PUBLIC "-//W3C//DTD SVG 1.1//EN" "http://www.w3.org/Graphics/SVG/1.1/DTD/svg11.dtd"><svg t="1729227188441" class="icon" viewBox="0 0 1024 1024" version="1.1" xmlns="http://www.w3.org/2000/svg" p-id="4348" xmlns:xlink="http://www.w3.org/1999/xlink" width="200" height="200"><path d="M992.23313 415.996a32 32 0 0 0 0-64h-64.02v-63.999H992.23313a32 32 0 0 0 0-64h-64.02V128a31.969 31.969 0 0 0-31.989-32h-95.999v-64a32 32 0 0 0-64 0v64h-63.999v-64a32 32 0 0 0-64 0v64h-63.998v-64a32 32 0 0 0-64 0v64h-64v-64a32 32 0 0 0-63.999 0v64h-63.999v-64a32 32 0 0 0-64 0v64H128.23313a31.983 31.983 0 0 0-32 32v95.999h-64a32 32 0 0 0 0 64h64v63.998h-64a32 32 0 0 0 0 64h64v64.01h-64a31.99 31.99 0 1 0 0 63.978h64v64.02h-64a31.99 31.99 0 1 0 0 63.979h64v64.02h-64a31.99 31.99 0 1 0 0 63.979h64v96.009a31.969 31.969 0 0 0 32 31.99h95.999V992a32 32 0 0 0 64 0v-64.02h63.998V992a32 32 0 0 0 64 0v-64.02h64V992a32 32 0 0 0 63.999 0v-64.02h63.999V992a32 32 0 0 0 64 0v-64.02h63.999V992a32 32 0 0 0 63.999 0v-64.02h95.999a31.948 31.948 0 0 0 31.99-31.99v-96.01H992.23313a31.99 31.99 0 0 0 0-63.978h-64.02v-64.02H992.23313a31.99 31.99 0 0 0 0-63.979h-64.02v-64.02H992.23313a31.99 31.99 0 0 0 0-63.979h-64.02v-64.01H992.23313zM864.23513 864.002H160.23113V159.998h704.004v704.004zM480.23813 415.996h-63.999v64.01h64v-64.01z m0 127.988h-63.999v64.02h64v-64.02z m128-127.988h-64v64.01h64v-64.01z m0 127.988h-64v64.02h64v-64.02z" p-id="4349"></path></svg>