<?xml version="1.0" standalone="no"?><!DOCTYPE svg PUBLIC "-//W3C//DTD SVG 1.1//EN" "http://www.w3.org/Graphics/SVG/1.1/DTD/svg11.dtd"><svg t="1708608085176" class="icon" viewBox="0 0 1024 1024" version="1.1" xmlns="http://www.w3.org/2000/svg" p-id="5152" xmlns:xlink="http://www.w3.org/1999/xlink" width="200" height="200"><path d="M128.991163 857.593001V322.690138H317.172138V143.142892h366.798017c12.553225 0 22.731272 11.099219 22.731272 24.654896v283.070714h103.45122V77.829997a31.039881 31.039881 0 0 0-30.967633-30.967633H278.103611L25.603161 284.018979v662.087807A30.958602 30.958602 0 0 0 56.498545 977.164729h556.107879V882.338208H151.785653c-12.562256 0-22.79449-11.162436-22.79449-24.781331z m0 0" p-id="5153"></path><path d="M998.396839 662.701921H838.790256V512H676.727215V662.701921H517.247068v158.152576h159.480147V977.164729h162.063041V820.854497h159.606583z m0 0" p-id="5154"></path></svg>