<?xml version="1.0" standalone="no"?><!DOCTYPE svg PUBLIC "-//W3C//DTD SVG 1.1//EN" "http://www.w3.org/Graphics/SVG/1.1/DTD/svg11.dtd"><svg t="1730451098062" class="icon" viewBox="0 0 1024 1024" version="1.1" xmlns="http://www.w3.org/2000/svg" p-id="2426" xmlns:xlink="http://www.w3.org/1999/xlink" width="200" height="200"><path d="M547.929825 46.708772H95.214035C44.912281 46.708772 3.592982 88.02807 3.592982 138.329825v158.091228h635.957895V138.329825c-1.796491-50.301754-41.319298-91.621053-91.621052-91.621053z" fill="#000000" p-id="2427"></path><path d="M934.175439 244.322807H3.592982v646.736842c0 48.505263 39.522807 86.231579 86.231579 86.231579h844.350878c48.505263 0 86.231579-39.522807 86.231579-86.231579V330.554386c0-46.708772-35.929825-86.231579-86.231579-86.231579zM661.108772 574.877193c0 14.37193-12.575439 26.947368-26.947368 26.947368h-97.010527v97.010527c0 14.37193-12.575439 26.947368-26.947368 26.947368s-26.947368-12.575439-26.947369-26.947368v-97.010527h-95.214035c-14.37193 0-26.947368-12.575439-26.947368-26.947368s12.575439-26.947368 26.947368-26.947368H485.052632v-97.010527c0-14.37193 12.575439-26.947368 26.947368-26.947368s26.947368 12.575439 26.947368 26.947368v97.010527h97.010527c16.168421 0 25.150877 12.575439 25.150877 26.947368z" fill="#000000" p-id="2428"></path></svg>