<?xml version="1.0" standalone="no"?><!DOCTYPE svg PUBLIC "-//W3C//DTD SVG 1.1//EN" "http://www.w3.org/Graphics/SVG/1.1/DTD/svg11.dtd"><svg t="1708608885340" class="icon" viewBox="0 0 1024 1024" version="1.1" xmlns="http://www.w3.org/2000/svg" p-id="1587" xmlns:xlink="http://www.w3.org/1999/xlink" width="200" height="200"><path d="M386.810901 1013.867305c0 9.564786-6.376524 6.376524-15.94131 0-3.188262 0-6.376524-3.188262-9.564785-3.188262-168.977884-66.953501-280.567053-245.496171-271.002267-439.980151 6.376524-162.60136 79.706549-283.755315 232.743123-350.708816 79.706549-35.070882 162.60136-47.823929 248.684433-51.012192 25.506096 0 28.694358-6.376524 28.694358-28.694358V0c111.589169 111.589169 219.990076 216.801814 328.390982 325.20272 12.753048 12.753048 0 19.129572-6.376524 25.506096-98.836121 102.024383-197.672242 200.860504-299.696624 302.884887-6.376524 6.376524-9.564786 12.753048-22.317834 15.94131v-178.54267c0-19.129572-6.376524-22.317834-22.317834-22.317834-44.635668 3.188262-92.459597 3.188262-137.095264 15.94131-92.459597 25.506096-165.789622 76.518287-191.295718 175.354408-35.070882 130.718741 6.376524 274.190529 137.095264 353.897078z" p-id="1588" fill="#2c2c2c"></path></svg>