<?xml version="1.0" standalone="no"?><!DOCTYPE svg PUBLIC "-//W3C//DTD SVG 1.1//EN" "http://www.w3.org/Graphics/SVG/1.1/DTD/svg11.dtd"><svg t="1730514921812" class="icon" viewBox="0 0 1536 1024" version="1.1" xmlns="http://www.w3.org/2000/svg" p-id="17773" xmlns:xlink="http://www.w3.org/1999/xlink" width="300" height="200"><path d="M1331.2 102.4a102.4 102.4 0 0 1 102.4 102.4v614.4a102.4 102.4 0 0 1-102.4 102.4H204.8a102.4 102.4 0 0 1-102.4-102.4V204.8a102.4 102.4 0 0 1 102.4-102.4h1126.4m0-102.4H204.8a204.8 204.8 0 0 0-204.8 204.8v614.4a204.8 204.8 0 0 0 204.8 204.8h1126.4a204.8 204.8 0 0 0 204.8-204.8V204.8a204.8 204.8 0 0 0-204.8-204.8z" fill="#000000" p-id="17774"></path><path d="M1075.2 563.2a51.2 51.2 0 0 1-51.2-38.912c-26.624-105.984-73.216-174.08-138.752-201.728-109.568-46.592-245.76 28.16-247.296 29.184a51.3536 51.3536 0 1 1-51.2-89.088c7.168-4.096 180.736-102.4 338.432-34.304 96.256 40.96 162.816 132.608 197.632 271.36A51.2 51.2 0 0 1 1075.2 563.2z" fill="#000000" p-id="17775"></path><path d="M1123.84 657.408l-194.048-96.768 45.568-91.648 102.4 51.2 51.2-102.4 91.648 45.568-96.768 194.048zM755.2 844.8a307.2 307.2 0 0 1-120.832-25.6c-96.256-40.96-162.816-132.608-197.632-271.36a51.2 51.2 0 1 1 99.328-24.576c26.624 105.984 73.216 174.08 138.752 201.728 109.056 46.592 245.76-28.16 247.296-29.184a51.3536 51.3536 0 1 1 51.2 89.088 485.888 485.888 0 0 1-218.112 59.904z" fill="#000000" p-id="17776"></path><path d="M432.64 631.808l-91.648-45.568 96.768-194.048 194.048 96.768-45.568 91.648-102.4-51.2-51.2 102.4z" fill="#000000" p-id="17777"></path></svg>