<svg t="1732270220489" class="icon" viewBox="0 0 1237 1024" version="1.1" xmlns="http://www.w3.org/2000/svg" p-id="6126" width="32" height="32"><path d="M408.500192 0l326.643038 815.429229h-76.515228l-94.81918-243.52896h-392.788646L76.200997 815.429229H0L326.643038 0z m-38.807518 68.030993h-3.456541l-172.827004 437.487994h347.146606z m655.250019 269.924358c136.611891 0 212.105869 128.206214 212.105869 257.826467a212.891446 212.891446 0 0 1-212.105869 219.961642c-113.358803 0-234.651937-38.100499-234.651937-219.961642s98.432835-257.826467 234.966168-257.826467z m-2.906636 70.701956a146.274492 146.274492 0 0 0-163.164404 164.971232c0 116.108324 31.423092 175.105178 155.858535 175.105178h7.305869a154.758727 154.758727 0 0 0 147.3743-175.183736 159.393633 159.393633 0 0 0-146.981512-164.499885z" p-id="6127" fill="#000000"></path><path d="M0 935.77967h1229.899808v87.827541H0zM790.683544 0h68.423782v815.429229h-68.423782z" p-id="6128" fill="#000000"></path></svg>